REM DIRINDEX 1\2,1\3,1\4,1\5
REM DIRNAME "folder01","folder02","folder03","folder04","folder05"
TITLE ""
FILE "P1Q_t_0829-0838.mp3" MP3
  TRACK 01 AUDIO
    TITLE "0:"
    INDEX 01 00:00:00
  TRACK 02 AUDIO
    TITLE "3:cjc173_3433"
    INDEX 01 00:00:10
  TRACK 03 AUDIO
    TITLE "0:"
    INDEX 01 00:01:43
  TRACK 04 AUDIO
    TITLE "4:cjc173_3434"
    INDEX 01 00:01:65
  TRACK 05 AUDIO
    TITLE "0:"
    INDEX 01 00:03:36
  TRACK 06 AUDIO
    TITLE "5:cjc173_3435"
    INDEX 01 00:03:60
  TRACK 07 AUDIO
    TITLE "0:"
    INDEX 01 00:07:63
  TRACK 08 AUDIO
    TITLE "3:cjc173_3436"
    INDEX 01 00:08:33
  TRACK 09 AUDIO
    TITLE "0:"
    INDEX 01 00:09:50
  TRACK 10 AUDIO
    TITLE "4:cjc173_3437"
    INDEX 01 00:09:74
  TRACK 11 AUDIO
    TITLE "0:"
    INDEX 01 00:13:03
  TRACK 12 AUDIO
    TITLE "5:cjc173_3438"
    INDEX 01 00:13:25
  TRACK 13 AUDIO
    TITLE "0:"
    INDEX 01 00:17:32
  TRACK 14 AUDIO
    TITLE "3:cjc173_3439"
    INDEX 01 00:18:04
  TRACK 15 AUDIO
    TITLE "0:"
    INDEX 01 00:19:21
  TRACK 16 AUDIO
    TITLE "4:cjc173_3440"
    INDEX 01 00:19:43
  TRACK 17 AUDIO
    TITLE "0:"
    INDEX 01 00:21:10
  TRACK 18 AUDIO
    TITLE "5:cjc173_3441"
    INDEX 01 00:21:32
  TRACK 19 AUDIO
    TITLE "0:"
    INDEX 01 00:26:43
  TRACK 20 AUDIO
    TITLE "3:cjc173_3442"
    INDEX 01 00:27:15
  TRACK 21 AUDIO
    TITLE "0:"
    INDEX 01 00:28:09
  TRACK 22 AUDIO
    TITLE "4:cjc173_3443"
    INDEX 01 00:28:32
  TRACK 23 AUDIO
    TITLE "0:"
    INDEX 01 00:32:51
  TRACK 24 AUDIO
    TITLE "5:cjc173_3444"
    INDEX 01 00:32:71
  TRACK 25 AUDIO
    TITLE "0:"
    INDEX 01 00:36:34
  TRACK 26 AUDIO
    TITLE "3:cjc173_3445"
    INDEX 01 00:37:06
  TRACK 27 AUDIO
    TITLE "0:"
    INDEX 01 00:38:15
  TRACK 28 AUDIO
    TITLE "4:cjc173_3446"
    INDEX 01 00:38:38
  TRACK 29 AUDIO
    TITLE "0:"
    INDEX 01 00:42:07
  TRACK 30 AUDIO
    TITLE "5:cjc173_3447"
    INDEX 01 00:42:26
  TRACK 31 AUDIO
    TITLE "0:"
    INDEX 01 00:47:47
  TRACK 32 AUDIO
    TITLE "3:cjc173_3448"
    INDEX 01 00:48:17
  TRACK 33 AUDIO
    TITLE "0:"
    INDEX 01 00:49:42
  TRACK 34 AUDIO
    TITLE "4:cjc173_3449"
    INDEX 01 00:49:64
  TRACK 35 AUDIO
    TITLE "0:"
    INDEX 01 00:52:17
  TRACK 36 AUDIO
    TITLE "5:cjc173_3450"
    INDEX 01 00:52:40
  TRACK 37 AUDIO
    TITLE "0:"
    INDEX 01 00:58:10
  TRACK 38 AUDIO
    TITLE "3:cjc173_3451"
    INDEX 01 00:58:57
  TRACK 39 AUDIO
    TITLE "0:"
    INDEX 01 01:00:12
  TRACK 40 AUDIO
    TITLE "4:cjc173_3452"
    INDEX 01 01:00:32
  TRACK 41 AUDIO
    TITLE "0:"
    INDEX 01 01:02:49
  TRACK 42 AUDIO
    TITLE "5:cjc173_3453"
    INDEX 01 01:02:68
  TRACK 43 AUDIO
    TITLE "0:"
    INDEX 01 01:07:67
  TRACK 44 AUDIO
    TITLE "3:cjc173_3454"
    INDEX 01 01:08:39
  TRACK 45 AUDIO
    TITLE "0:"
    INDEX 01 01:09:74
  TRACK 46 AUDIO
    TITLE "4:cjc173_3455"
    INDEX 01 01:10:21
  TRACK 47 AUDIO
    TITLE "0:"
    INDEX 01 01:12:27
  TRACK 48 AUDIO
    TITLE "5:cjc173_3456"
    INDEX 01 01:12:47
  TRACK 49 AUDIO
    TITLE "0:"
    INDEX 01 01:17:70
  TRACK 50 AUDIO
    TITLE "3:cjc173_3457"
    INDEX 01 01:18:38
  TRACK 51 AUDIO
    TITLE "0:"
    INDEX 01 01:19:57
  TRACK 52 AUDIO
    TITLE "4:cjc173_3458"
    INDEX 01 01:20:03
  TRACK 53 AUDIO
    TITLE "0:"
    INDEX 01 01:24:17
  TRACK 54 AUDIO
    TITLE "5:cjc173_3459"
    INDEX 01 01:24:38
  TRACK 55 AUDIO
    TITLE "0:"
    INDEX 01 01:29:26
  TRACK 56 AUDIO
    TITLE "3:cjc173_3460"
    INDEX 01 01:30:00
  TRACK 57 AUDIO
    TITLE "0:"
    INDEX 01 01:31:17
  TRACK 58 AUDIO
    TITLE "4:cjc173_3461"
    INDEX 01 01:31:39
  TRACK 59 AUDIO
    TITLE "0:"
    INDEX 01 01:32:44
  TRACK 60 AUDIO
    TITLE "5:cjc173_3462"
    INDEX 01 01:32:63
  TRACK 61 AUDIO
    TITLE "0:"
    INDEX 01 01:37:65
